<mxfile host="app.diagrams.net" modified="2021-10-19T00:10:15.323Z" agent="5.0 (Windows NT 10.0; Win64; x64) AppleWebKit/537.36 (KHTML, like Gecko) Chrome/94.0.4606.81 Safari/537.36 Edg/94.0.992.50" etag="4batXbC-_K7a34LulOAt" version="15.5.5" type="github">
  <diagram id="Rla3OolJ6EHCVR5QO9Mx" name="Page-1">
    <mxGraphModel dx="782" dy="468" grid="1" gridSize="10" guides="1" tooltips="1" connect="1" arrows="1" fold="1" page="1" pageScale="1" pageWidth="850" pageHeight="1100" math="0" shadow="0">
      <root>
        <mxCell id="0" />
        <mxCell id="1" parent="0" />
        <UserObject label="5&lt;br&gt;[]/[1,2,3,4]" treeRoot="1" id="WKAwaEapeAiAjXYtnPta-38">
          <mxCell style="whiteSpace=wrap;html=1;align=center;collapsible=0;container=1;recursiveResize=0;fillColor=#f8cecc;strokeColor=#b85450;fontSize=12;verticalAlign=middle;spacing=0;" vertex="1" parent="1">
            <mxGeometry x="375" y="40" width="80" height="40" as="geometry" />
          </mxCell>
        </UserObject>
        <mxCell id="WKAwaEapeAiAjXYtnPta-67" value="&lt;font style=&quot;font-size: 14px&quot;&gt;&lt;span style=&quot;box-sizing: border-box ; font-weight: 700 ; font-family: &amp;#34;droid serif&amp;#34; , &amp;#34;georgia&amp;#34; , serif ; color: rgb(61 , 61 , 78) ; background-color: rgb(255 , 255 , 255)&quot;&gt;Items:&lt;/span&gt;&lt;span style=&quot;color: rgb(61 , 61 , 78) ; font-family: &amp;#34;droid serif&amp;#34; , &amp;#34;georgia&amp;#34; , serif ; background-color: rgb(255 , 255 , 255)&quot;&gt;&amp;nbsp;{ Apple, Orange, Banana, Melon }&lt;/span&gt;&lt;br style=&quot;box-sizing: border-box ; color: rgb(61 , 61 , 78) ; font-family: &amp;#34;droid serif&amp;#34; , &amp;#34;georgia&amp;#34; , serif ; background-color: rgb(255 , 255 , 255)&quot;&gt;&lt;span style=&quot;box-sizing: border-box ; font-weight: 700 ; font-family: &amp;#34;droid serif&amp;#34; , &amp;#34;georgia&amp;#34; , serif ; color: rgb(61 , 61 , 78) ; background-color: rgb(255 , 255 , 255)&quot;&gt;Weights:&lt;/span&gt;&lt;span style=&quot;color: rgb(61 , 61 , 78) ; font-family: &amp;#34;droid serif&amp;#34; , &amp;#34;georgia&amp;#34; , serif ; background-color: rgb(255 , 255 , 255)&quot;&gt;&amp;nbsp;{ 1,2, 3, 4 }&lt;/span&gt;&lt;br style=&quot;box-sizing: border-box ; color: rgb(61 , 61 , 78) ; font-family: &amp;#34;droid serif&amp;#34; , &amp;#34;georgia&amp;#34; , serif ; background-color: rgb(255 , 255 , 255)&quot;&gt;&lt;span style=&quot;box-sizing: border-box ; font-weight: 700 ; font-family: &amp;#34;droid serif&amp;#34; , &amp;#34;georgia&amp;#34; , serif ; color: rgb(61 , 61 , 78) ; background-color: rgb(255 , 255 , 255)&quot;&gt;Profits:&lt;/span&gt;&lt;span style=&quot;color: rgb(61 , 61 , 78) ; font-family: &amp;#34;droid serif&amp;#34; , &amp;#34;georgia&amp;#34; , serif ; background-color: rgb(255 , 255 , 255)&quot;&gt;&amp;nbsp;{ 3, 4, 5, 7 }&lt;/span&gt;&lt;br style=&quot;box-sizing: border-box ; color: rgb(61 , 61 , 78) ; font-family: &amp;#34;droid serif&amp;#34; , &amp;#34;georgia&amp;#34; , serif ; background-color: rgb(255 , 255 , 255)&quot;&gt;&lt;span style=&quot;box-sizing: border-box ; font-weight: 700 ; font-family: &amp;#34;droid serif&amp;#34; , &amp;#34;georgia&amp;#34; , serif ; color: rgb(61 , 61 , 78) ; background-color: rgb(255 , 255 , 255)&quot;&gt;Knapsack capacity:&lt;/span&gt;&lt;span style=&quot;color: rgb(61 , 61 , 78) ; font-family: &amp;#34;droid serif&amp;#34; , &amp;#34;georgia&amp;#34; , serif ; background-color: rgb(255 , 255 , 255)&quot;&gt;&amp;nbsp;5&lt;/span&gt;&lt;/font&gt;" style="text;html=1;strokeColor=none;fillColor=none;align=center;verticalAlign=middle;whiteSpace=wrap;rounded=0;fontSize=12;" vertex="1" parent="1">
          <mxGeometry x="10" y="20" width="180" height="80" as="geometry" />
        </mxCell>
        <mxCell id="WKAwaEapeAiAjXYtnPta-70" value="" style="edgeStyle=elbowEdgeStyle;elbow=vertical;startArrow=none;endArrow=none;rounded=0;fontSize=14;strokeColor=#b85450;fillColor=#f8cecc;exitX=0.5;exitY=1;exitDx=0;exitDy=0;" edge="1" target="WKAwaEapeAiAjXYtnPta-71" parent="1" source="WKAwaEapeAiAjXYtnPta-38">
          <mxGeometry relative="1" as="geometry">
            <mxPoint x="440" y="80" as="sourcePoint" />
          </mxGeometry>
        </mxCell>
        <mxCell id="WKAwaEapeAiAjXYtnPta-71" value="5&lt;br&gt;[]/[1,2,3]" style="whiteSpace=wrap;html=1;align=center;verticalAlign=middle;collapsible=0;container=1;recursiveResize=0;fontSize=14;fillColor=#f8cecc;strokeColor=#b85450;" vertex="1" parent="1">
          <mxGeometry x="615" y="120" width="90" height="40" as="geometry" />
        </mxCell>
        <mxCell id="WKAwaEapeAiAjXYtnPta-72" value="" style="edgeStyle=elbowEdgeStyle;elbow=vertical;startArrow=none;endArrow=none;rounded=0;fontSize=14;strokeColor=#b85450;fillColor=#f8cecc;exitX=0.5;exitY=1;exitDx=0;exitDy=0;" edge="1" target="WKAwaEapeAiAjXYtnPta-73" parent="1" source="WKAwaEapeAiAjXYtnPta-38">
          <mxGeometry relative="1" as="geometry">
            <mxPoint x="340" y="70" as="sourcePoint" />
            <Array as="points">
              <mxPoint x="440" y="100" />
            </Array>
          </mxGeometry>
        </mxCell>
        <mxCell id="WKAwaEapeAiAjXYtnPta-73" value="1&lt;br&gt;[4]/[1,2,3]" style="whiteSpace=wrap;html=1;align=center;verticalAlign=middle;collapsible=0;container=1;recursiveResize=0;fontSize=14;fillColor=#dae8fc;strokeColor=#6c8ebf;" vertex="1" parent="1">
          <mxGeometry x="187.5" y="130" width="100" height="40" as="geometry" />
        </mxCell>
        <mxCell id="WKAwaEapeAiAjXYtnPta-74" value="" style="edgeStyle=elbowEdgeStyle;elbow=vertical;startArrow=none;endArrow=none;rounded=0;fontSize=14;strokeColor=#b85450;fillColor=#f8cecc;exitX=0.5;exitY=1;exitDx=0;exitDy=0;" edge="1" parent="1" target="WKAwaEapeAiAjXYtnPta-75" source="WKAwaEapeAiAjXYtnPta-73">
          <mxGeometry relative="1" as="geometry">
            <mxPoint x="267.5" y="190" as="sourcePoint" />
            <Array as="points">
              <mxPoint x="290" y="180" />
              <mxPoint x="265" y="200" />
              <mxPoint x="295" y="220" />
            </Array>
          </mxGeometry>
        </mxCell>
        <mxCell id="WKAwaEapeAiAjXYtnPta-75" value="1&lt;br&gt;[4]/[1,2]" style="whiteSpace=wrap;html=1;align=center;verticalAlign=middle;collapsible=0;container=1;recursiveResize=0;fontSize=14;fillColor=#f8cecc;strokeColor=#b85450;" vertex="1" parent="1">
          <mxGeometry x="250" y="200" width="90" height="40" as="geometry" />
        </mxCell>
        <mxCell id="WKAwaEapeAiAjXYtnPta-76" value="" style="edgeStyle=elbowEdgeStyle;elbow=vertical;startArrow=none;endArrow=none;rounded=0;fontSize=14;strokeColor=#b85450;fillColor=#f8cecc;exitX=0.5;exitY=1;exitDx=0;exitDy=0;entryX=0.5;entryY=0;entryDx=0;entryDy=0;" edge="1" parent="1" target="WKAwaEapeAiAjXYtnPta-77" source="WKAwaEapeAiAjXYtnPta-73">
          <mxGeometry relative="1" as="geometry">
            <mxPoint x="220" y="200" as="sourcePoint" />
            <Array as="points">
              <mxPoint x="210" y="180" />
              <mxPoint x="220" y="190" />
              <mxPoint x="215" y="200" />
              <mxPoint x="245" y="220" />
            </Array>
          </mxGeometry>
        </mxCell>
        <mxCell id="WKAwaEapeAiAjXYtnPta-77" value="-2&lt;br&gt;[4,3]/[1,2]" style="whiteSpace=wrap;html=1;align=center;verticalAlign=middle;collapsible=0;container=1;recursiveResize=0;fontSize=14;fillColor=#dae8fc;strokeColor=#6c8ebf;" vertex="1" parent="1">
          <mxGeometry x="140" y="200" width="100" height="40" as="geometry" />
        </mxCell>
        <mxCell id="WKAwaEapeAiAjXYtnPta-84" value="" style="edgeStyle=elbowEdgeStyle;elbow=vertical;startArrow=none;endArrow=none;rounded=0;fontSize=14;strokeColor=#b85450;fillColor=#f8cecc;exitX=0.5;exitY=1;exitDx=0;exitDy=0;entryX=0.5;entryY=0;entryDx=0;entryDy=0;" edge="1" parent="1" target="WKAwaEapeAiAjXYtnPta-85" source="WKAwaEapeAiAjXYtnPta-71">
          <mxGeometry relative="1" as="geometry">
            <mxPoint x="650" y="190" as="sourcePoint" />
            <mxPoint x="750" y="230" as="targetPoint" />
            <Array as="points">
              <mxPoint x="674.5" y="180" />
              <mxPoint x="705" y="210" />
            </Array>
          </mxGeometry>
        </mxCell>
        <mxCell id="WKAwaEapeAiAjXYtnPta-85" value="5&lt;br&gt;[]/[1,2]" style="whiteSpace=wrap;html=1;align=center;verticalAlign=middle;collapsible=0;container=1;recursiveResize=0;fontSize=14;fillColor=#f8cecc;strokeColor=#b85450;" vertex="1" parent="1">
          <mxGeometry x="670" y="190" width="90" height="40" as="geometry" />
        </mxCell>
        <mxCell id="WKAwaEapeAiAjXYtnPta-86" value="" style="edgeStyle=elbowEdgeStyle;elbow=vertical;startArrow=none;endArrow=none;rounded=0;fontSize=14;strokeColor=#b85450;fillColor=#f8cecc;exitX=0.5;exitY=1;exitDx=0;exitDy=0;" edge="1" parent="1" target="WKAwaEapeAiAjXYtnPta-87" source="WKAwaEapeAiAjXYtnPta-71">
          <mxGeometry relative="1" as="geometry">
            <mxPoint x="650" y="190" as="sourcePoint" />
            <Array as="points">
              <mxPoint x="624.5" y="180" />
              <mxPoint x="675" y="210" />
            </Array>
          </mxGeometry>
        </mxCell>
        <mxCell id="WKAwaEapeAiAjXYtnPta-87" value="2&lt;br&gt;[3]/[1,2]" style="whiteSpace=wrap;html=1;align=center;verticalAlign=middle;collapsible=0;container=1;recursiveResize=0;fontSize=14;fillColor=#dae8fc;strokeColor=#6c8ebf;" vertex="1" parent="1">
          <mxGeometry x="560" y="190" width="100" height="40" as="geometry" />
        </mxCell>
        <mxCell id="WKAwaEapeAiAjXYtnPta-91" value="1&lt;br&gt;[4]/[1]" style="whiteSpace=wrap;html=1;align=center;verticalAlign=middle;collapsible=0;container=1;recursiveResize=0;fontSize=14;fillColor=#f8cecc;strokeColor=#b85450;" vertex="1" parent="1">
          <mxGeometry x="300" y="280" width="90" height="40" as="geometry" />
        </mxCell>
        <mxCell id="WKAwaEapeAiAjXYtnPta-92" value="-1&lt;br&gt;[4,2]/[1]" style="whiteSpace=wrap;html=1;align=center;verticalAlign=middle;collapsible=0;container=1;recursiveResize=0;fontSize=14;fillColor=#dae8fc;strokeColor=#6c8ebf;" vertex="1" parent="1">
          <mxGeometry x="187.5" y="280" width="100" height="40" as="geometry" />
        </mxCell>
        <mxCell id="WKAwaEapeAiAjXYtnPta-93" value="" style="edgeStyle=elbowEdgeStyle;elbow=vertical;startArrow=none;endArrow=none;rounded=0;fontSize=14;strokeColor=#b85450;fillColor=#f8cecc;exitX=0.5;exitY=1;exitDx=0;exitDy=0;entryX=0.5;entryY=0;entryDx=0;entryDy=0;" edge="1" target="WKAwaEapeAiAjXYtnPta-92" parent="1" source="WKAwaEapeAiAjXYtnPta-75">
          <mxGeometry relative="1" as="geometry">
            <mxPoint x="280" y="260" as="sourcePoint" />
            <Array as="points">
              <mxPoint x="270" y="260" />
              <mxPoint x="305" y="280" />
            </Array>
          </mxGeometry>
        </mxCell>
        <mxCell id="WKAwaEapeAiAjXYtnPta-94" value="" style="edgeStyle=elbowEdgeStyle;elbow=vertical;startArrow=none;endArrow=none;rounded=0;fontSize=14;strokeColor=#b85450;fillColor=#f8cecc;exitX=0.5;exitY=1;exitDx=0;exitDy=0;entryX=0.5;entryY=0;entryDx=0;entryDy=0;" edge="1" target="WKAwaEapeAiAjXYtnPta-91" parent="1" source="WKAwaEapeAiAjXYtnPta-75">
          <mxGeometry relative="1" as="geometry">
            <mxPoint x="280" y="260" as="sourcePoint" />
            <Array as="points">
              <mxPoint x="320" y="260" />
            </Array>
          </mxGeometry>
        </mxCell>
        <mxCell id="WKAwaEapeAiAjXYtnPta-95" value="" style="edgeStyle=elbowEdgeStyle;elbow=vertical;startArrow=none;endArrow=none;rounded=0;fontSize=14;strokeColor=#b85450;fillColor=#f8cecc;exitX=0.5;exitY=1;exitDx=0;exitDy=0;entryX=0.5;entryY=0;entryDx=0;entryDy=0;" edge="1" parent="1" target="WKAwaEapeAiAjXYtnPta-96" source="WKAwaEapeAiAjXYtnPta-91">
          <mxGeometry relative="1" as="geometry">
            <mxPoint x="337.5" y="370" as="sourcePoint" />
            <Array as="points">
              <mxPoint x="370" y="340" />
              <mxPoint x="387.5" y="390" />
            </Array>
          </mxGeometry>
        </mxCell>
        <mxCell id="WKAwaEapeAiAjXYtnPta-96" value="5&lt;br&gt;[4]/[]" style="whiteSpace=wrap;html=1;align=center;verticalAlign=middle;collapsible=0;container=1;recursiveResize=0;fontSize=14;fillColor=#f8cecc;strokeColor=#b85450;" vertex="1" parent="1">
          <mxGeometry x="360" y="350" width="90" height="40" as="geometry" />
        </mxCell>
        <mxCell id="WKAwaEapeAiAjXYtnPta-97" value="" style="edgeStyle=elbowEdgeStyle;elbow=vertical;startArrow=none;endArrow=none;rounded=0;fontSize=14;strokeColor=#b85450;fillColor=#f8cecc;exitX=0.5;exitY=1;exitDx=0;exitDy=0;" edge="1" parent="1" target="WKAwaEapeAiAjXYtnPta-98" source="WKAwaEapeAiAjXYtnPta-91">
          <mxGeometry relative="1" as="geometry">
            <mxPoint x="332.5" y="370" as="sourcePoint" />
            <Array as="points">
              <mxPoint x="320" y="340" />
              <mxPoint x="347.5" y="390" />
              <mxPoint x="307.5" y="380" />
              <mxPoint x="357.5" y="390" />
            </Array>
          </mxGeometry>
        </mxCell>
        <mxCell id="WKAwaEapeAiAjXYtnPta-98" value="0&lt;br&gt;[4,1]/[]" style="whiteSpace=wrap;html=1;align=center;verticalAlign=middle;collapsible=0;container=1;recursiveResize=0;fontSize=14;fillColor=#d5e8d4;strokeColor=#82b366;" vertex="1" parent="1">
          <mxGeometry x="250" y="350" width="100" height="40" as="geometry" />
        </mxCell>
        <mxCell id="WKAwaEapeAiAjXYtnPta-99" value="" style="edgeStyle=elbowEdgeStyle;elbow=vertical;startArrow=none;endArrow=none;rounded=0;fontSize=14;strokeColor=#b85450;fillColor=#f8cecc;exitX=0.5;exitY=1;exitDx=0;exitDy=0;entryX=0.5;entryY=0;entryDx=0;entryDy=0;" edge="1" parent="1" target="WKAwaEapeAiAjXYtnPta-100" source="WKAwaEapeAiAjXYtnPta-87">
          <mxGeometry relative="1" as="geometry">
            <mxPoint x="610" y="230" as="sourcePoint" />
            <mxPoint x="700" y="300" as="targetPoint" />
            <Array as="points">
              <mxPoint x="624.5" y="250" />
              <mxPoint x="655" y="280" />
            </Array>
          </mxGeometry>
        </mxCell>
        <mxCell id="WKAwaEapeAiAjXYtnPta-100" value="2&lt;br&gt;[3]/[1]" style="whiteSpace=wrap;html=1;align=center;verticalAlign=middle;collapsible=0;container=1;recursiveResize=0;fontSize=14;fillColor=#f8cecc;strokeColor=#b85450;" vertex="1" parent="1">
          <mxGeometry x="565" y="260" width="90" height="40" as="geometry" />
        </mxCell>
        <mxCell id="WKAwaEapeAiAjXYtnPta-101" value="" style="edgeStyle=elbowEdgeStyle;elbow=vertical;startArrow=none;endArrow=none;rounded=0;fontSize=14;strokeColor=#b85450;fillColor=#f8cecc;exitX=0.5;exitY=1;exitDx=0;exitDy=0;" edge="1" parent="1" target="WKAwaEapeAiAjXYtnPta-102" source="WKAwaEapeAiAjXYtnPta-87">
          <mxGeometry relative="1" as="geometry">
            <mxPoint x="610" y="230" as="sourcePoint" />
            <Array as="points">
              <mxPoint x="574.5" y="250" />
              <mxPoint x="625" y="280" />
            </Array>
          </mxGeometry>
        </mxCell>
        <mxCell id="WKAwaEapeAiAjXYtnPta-102" value="0&lt;br&gt;[3,2]/[1]" style="whiteSpace=wrap;html=1;align=center;verticalAlign=middle;collapsible=0;container=1;recursiveResize=0;fontSize=14;fillColor=#d5e8d4;strokeColor=#82b366;" vertex="1" parent="1">
          <mxGeometry x="455" y="260" width="100" height="40" as="geometry" />
        </mxCell>
        <mxCell id="WKAwaEapeAiAjXYtnPta-107" value="" style="edgeStyle=elbowEdgeStyle;elbow=vertical;startArrow=none;endArrow=none;rounded=0;fontSize=14;strokeColor=#b85450;fillColor=#f8cecc;exitX=0.5;exitY=1;exitDx=0;exitDy=0;entryX=0.5;entryY=0;entryDx=0;entryDy=0;" edge="1" parent="1" target="WKAwaEapeAiAjXYtnPta-108" source="WKAwaEapeAiAjXYtnPta-100">
          <mxGeometry relative="1" as="geometry">
            <mxPoint x="615" y="330" as="sourcePoint" />
            <mxPoint x="705" y="400" as="targetPoint" />
            <Array as="points">
              <mxPoint x="635" y="320" />
              <mxPoint x="629.5" y="350" />
              <mxPoint x="660" y="380" />
            </Array>
          </mxGeometry>
        </mxCell>
        <mxCell id="WKAwaEapeAiAjXYtnPta-108" value="2&lt;br&gt;[3]/[]" style="whiteSpace=wrap;html=1;align=center;verticalAlign=middle;collapsible=0;container=1;recursiveResize=0;fontSize=14;fillColor=#f8cecc;strokeColor=#b85450;" vertex="1" parent="1">
          <mxGeometry x="580" y="350" width="90" height="40" as="geometry" />
        </mxCell>
        <mxCell id="WKAwaEapeAiAjXYtnPta-109" value="" style="edgeStyle=elbowEdgeStyle;elbow=vertical;startArrow=none;endArrow=none;rounded=0;fontSize=14;strokeColor=#b85450;fillColor=#f8cecc;exitX=0.5;exitY=1;exitDx=0;exitDy=0;" edge="1" parent="1" target="WKAwaEapeAiAjXYtnPta-110" source="WKAwaEapeAiAjXYtnPta-100">
          <mxGeometry relative="1" as="geometry">
            <mxPoint x="615" y="330" as="sourcePoint" />
            <Array as="points">
              <mxPoint x="585" y="320" />
              <mxPoint x="579.5" y="350" />
              <mxPoint x="630" y="380" />
            </Array>
          </mxGeometry>
        </mxCell>
        <mxCell id="WKAwaEapeAiAjXYtnPta-110" value="1&lt;br&gt;[3,1]/[]" style="whiteSpace=wrap;html=1;align=center;verticalAlign=middle;collapsible=0;container=1;recursiveResize=0;fontSize=14;fillColor=#dae8fc;strokeColor=#6c8ebf;" vertex="1" parent="1">
          <mxGeometry x="470" y="350" width="100" height="40" as="geometry" />
        </mxCell>
        <mxCell id="WKAwaEapeAiAjXYtnPta-115" value="" style="edgeStyle=elbowEdgeStyle;elbow=vertical;startArrow=none;endArrow=none;rounded=0;fontSize=14;strokeColor=#b85450;fillColor=#f8cecc;exitX=0.5;exitY=1;exitDx=0;exitDy=0;entryX=0.5;entryY=0;entryDx=0;entryDy=0;" edge="1" parent="1" target="WKAwaEapeAiAjXYtnPta-116" source="WKAwaEapeAiAjXYtnPta-85">
          <mxGeometry relative="1" as="geometry">
            <mxPoint x="820" y="240" as="sourcePoint" />
            <mxPoint x="910" y="310" as="targetPoint" />
            <Array as="points">
              <mxPoint x="834.5" y="260" />
              <mxPoint x="865" y="290" />
            </Array>
          </mxGeometry>
        </mxCell>
        <mxCell id="WKAwaEapeAiAjXYtnPta-116" value="5&lt;br&gt;[]/[1]" style="whiteSpace=wrap;html=1;align=center;verticalAlign=middle;collapsible=0;container=1;recursiveResize=0;fontSize=14;fillColor=#f8cecc;strokeColor=#b85450;" vertex="1" parent="1">
          <mxGeometry x="830" y="270" width="90" height="40" as="geometry" />
        </mxCell>
        <mxCell id="WKAwaEapeAiAjXYtnPta-117" value="" style="edgeStyle=elbowEdgeStyle;elbow=vertical;startArrow=none;endArrow=none;rounded=0;fontSize=14;strokeColor=#b85450;fillColor=#f8cecc;exitX=0.5;exitY=1;exitDx=0;exitDy=0;" edge="1" parent="1" target="WKAwaEapeAiAjXYtnPta-118" source="WKAwaEapeAiAjXYtnPta-85">
          <mxGeometry relative="1" as="geometry">
            <mxPoint x="820" y="240" as="sourcePoint" />
            <Array as="points">
              <mxPoint x="784.5" y="260" />
              <mxPoint x="835" y="290" />
            </Array>
          </mxGeometry>
        </mxCell>
        <mxCell id="WKAwaEapeAiAjXYtnPta-118" value="3&lt;br&gt;[2]/[1]" style="whiteSpace=wrap;html=1;align=center;verticalAlign=middle;collapsible=0;container=1;recursiveResize=0;fontSize=14;fillColor=#dae8fc;strokeColor=#6c8ebf;" vertex="1" parent="1">
          <mxGeometry x="720" y="270" width="100" height="40" as="geometry" />
        </mxCell>
        <mxCell id="WKAwaEapeAiAjXYtnPta-122" value="" style="edgeStyle=elbowEdgeStyle;elbow=vertical;startArrow=none;endArrow=none;rounded=0;fontSize=14;strokeColor=#b85450;fillColor=#f8cecc;exitX=0.5;exitY=1;exitDx=0;exitDy=0;entryX=0.5;entryY=0;entryDx=0;entryDy=0;" edge="1" parent="1" target="WKAwaEapeAiAjXYtnPta-123" source="WKAwaEapeAiAjXYtnPta-118">
          <mxGeometry relative="1" as="geometry">
            <mxPoint x="790" y="320" as="sourcePoint" />
            <mxPoint x="880" y="390" as="targetPoint" />
            <Array as="points">
              <mxPoint x="804.5" y="340" />
              <mxPoint x="835" y="370" />
            </Array>
          </mxGeometry>
        </mxCell>
        <mxCell id="WKAwaEapeAiAjXYtnPta-123" value="3&lt;br&gt;[2]/[]" style="whiteSpace=wrap;html=1;align=center;verticalAlign=middle;collapsible=0;container=1;recursiveResize=0;fontSize=14;fillColor=#f8cecc;strokeColor=#b85450;" vertex="1" parent="1">
          <mxGeometry x="800" y="350" width="90" height="40" as="geometry" />
        </mxCell>
        <mxCell id="WKAwaEapeAiAjXYtnPta-124" value="" style="edgeStyle=elbowEdgeStyle;elbow=vertical;startArrow=none;endArrow=none;rounded=0;fontSize=14;strokeColor=#b85450;fillColor=#f8cecc;exitX=0.5;exitY=1;exitDx=0;exitDy=0;" edge="1" parent="1" target="WKAwaEapeAiAjXYtnPta-125" source="WKAwaEapeAiAjXYtnPta-118">
          <mxGeometry relative="1" as="geometry">
            <mxPoint x="790" y="320" as="sourcePoint" />
            <Array as="points">
              <mxPoint x="754.5" y="340" />
              <mxPoint x="805" y="370" />
            </Array>
          </mxGeometry>
        </mxCell>
        <mxCell id="WKAwaEapeAiAjXYtnPta-125" value="2&lt;br&gt;[2,1]/[]" style="whiteSpace=wrap;html=1;align=center;verticalAlign=middle;collapsible=0;container=1;recursiveResize=0;fontSize=14;fillColor=#d5e8d4;strokeColor=#82b366;" vertex="1" parent="1">
          <mxGeometry x="690" y="350" width="100" height="40" as="geometry" />
        </mxCell>
        <mxCell id="WKAwaEapeAiAjXYtnPta-126" value="" style="edgeStyle=elbowEdgeStyle;elbow=vertical;startArrow=none;endArrow=none;rounded=0;fontSize=14;strokeColor=#b85450;fillColor=#f8cecc;exitX=0.5;exitY=1;exitDx=0;exitDy=0;" edge="1" target="WKAwaEapeAiAjXYtnPta-127" source="WKAwaEapeAiAjXYtnPta-118" parent="1">
          <mxGeometry relative="1" as="geometry">
            <mxPoint x="715" y="230" as="sourcePoint" />
            <Array as="points">
              <mxPoint x="784.5" y="260" />
              <mxPoint x="835" y="290" />
            </Array>
          </mxGeometry>
        </mxCell>
        <mxCell id="WKAwaEapeAiAjXYtnPta-127" value="3&lt;br&gt;[2]/[1]" style="whiteSpace=wrap;html=1;align=center;verticalAlign=middle;collapsible=0;container=1;recursiveResize=0;fontSize=14;fillColor=#dae8fc;strokeColor=#6c8ebf;" vertex="1" parent="1">
          <mxGeometry x="900" y="350" width="100" height="40" as="geometry" />
        </mxCell>
      </root>
    </mxGraphModel>
  </diagram>
</mxfile>
